<svg width="24" height="10" viewBox="0 0 24 10" fill="none" xmlns="http://www.w3.org/2000/svg">
<path d="M2.61719 0.914062C2.73047 0.914062 3.09766 1.08594 3.71875 1.42969L3.97656 1.45312H4.09375C4.18359 1.45312 4.35547 1.375 4.60938 1.21875L4.72656 1.19531L4.75 1.21875V1.26562C4.65234 1.37109 4.55078 1.51953 4.44531 1.71094L4.49219 1.82812L4.46875 1.85156L4.53906 2.29688L4.49219 2.34375V2.36719C4.58203 2.48438 4.63672 2.61719 4.65625 2.76562C4.69922 2.76562 4.77734 2.95312 4.89062 3.32812C5.0625 3.59766 5.14844 3.80078 5.14844 3.9375C5.19531 4.00391 5.21875 4.18359 5.21875 4.47656V4.54688C5.32812 4.54688 5.46875 4.47656 5.64062 4.33594V4.28906L5.61719 4.26562V4.24219L5.64062 4.21875H5.66406L5.73438 4.28906V4.42969C5.73438 4.61328 5.61719 4.75391 5.38281 4.85156C5.38281 4.93359 5.42188 4.99609 5.5 5.03906L5.47656 5.15625C5.66406 5.62891 5.79688 6.04297 5.875 6.39844C5.9375 6.49609 5.98438 6.62891 6.01562 6.79688H5.99219C6.33984 7.64062 6.68359 8.14062 7.02344 8.29688L7.44531 8.50781V8.55469C7.09375 8.45312 6.54688 8.23438 5.80469 7.89844H5.57031C5.25781 7.89844 4.86719 8 4.39844 8.20312C4.33594 8.17969 4.30469 8.15625 4.30469 8.13281C4.80859 7.83594 5.07422 7.57031 5.10156 7.33594C5.14453 7.33594 5.18359 6.97656 5.21875 6.25781L5.14844 5.83594C5.11719 5.83594 5.07812 5.69531 5.03125 5.41406L5.00781 5.39062L5.03125 5.27344C4.82031 5.16016 4.6875 5.07422 4.63281 5.01562C4.35156 5.07031 4.21094 5.125 4.21094 5.17969L3.57812 5.22656H3.39062C3.30859 5.22656 3.23828 5.25 3.17969 5.29688H3.0625C3.0625 5.34375 3.03125 5.39062 2.96875 5.4375L2.99219 5.46094V5.48438C2.94531 5.55859 2.89062 5.87891 2.82812 6.44531L2.85156 6.51562L2.82812 6.89062V7.07812L2.80469 7.21875C2.91406 7.48438 3.02344 7.67188 3.13281 7.78125L3.4375 8.10938L3.39062 8.15625C2.72656 7.89062 2.08594 7.75781 1.46875 7.75781H1.42188C1.24219 7.75781 0.976562 7.78906 0.625 7.85156L0.601562 7.82812V7.78125C1.19922 7.58594 1.60547 7.27344 1.82031 6.84375C2.05469 6.375 2.22656 5.96875 2.33594 5.625C2.36719 5.61719 2.39844 5.57812 2.42969 5.50781L2.40625 5.4375H2.38281L1.44531 5.85938C1.30469 5.94922 1.23438 6.04297 1.23438 6.14062V6.21094C1.29688 6.32031 1.39062 6.375 1.51562 6.375C1.67188 6.33984 1.75 6.26172 1.75 6.14062C1.73047 6.07031 1.66797 6.01562 1.5625 5.97656C1.49609 5.99219 1.44141 6.03125 1.39844 6.09375C1.39844 6.16406 1.44531 6.21094 1.53906 6.23438L1.60938 6.11719L1.53906 6.07031L1.46875 6.11719V6.09375L1.53906 6.02344H1.5625L1.65625 6.11719V6.21094L1.58594 6.28125H1.53906C1.39844 6.25 1.32812 6.21094 1.32812 6.16406V6.04688C1.32812 5.9375 1.40625 5.88281 1.5625 5.88281C1.67188 5.88281 1.77344 5.96094 1.86719 6.11719V6.21094C1.86719 6.36328 1.75 6.45703 1.51562 6.49219H1.35156C1.13281 6.44531 1.02344 6.35156 1.02344 6.21094V6.1875C1.02344 5.89453 1.15625 5.69141 1.42188 5.57812L2.64062 4.96875V4.94531L2.61719 4.92188L2.78125 4.61719C2.78125 4.44141 2.84375 4.28516 2.96875 4.14844V3.82031C2.96875 3.74219 3.02344 3.67188 3.13281 3.60938L3.29688 3C3.35938 2.82422 3.41406 2.55078 3.46094 2.17969C3.30469 1.73047 3.16406 1.45703 3.03906 1.35938C3.03906 1.32813 2.90625 1.21094 2.64062 1.00781L2.59375 0.9375L2.61719 0.914062ZM3.13281 4.78125L3.27344 4.82812C4.05469 4.74609 4.44531 4.69141 4.44531 4.66406C4.44922 4.63281 4.50391 4.60938 4.60938 4.59375V4.54688H4.53906V4.47656L4.5625 4.38281L4.14062 2.97656L4.02344 2.74219V2.60156H3.97656C3.95312 2.60156 3.89062 2.73438 3.78906 3C3.64844 3.52734 3.53125 3.82422 3.4375 3.89062C3.29688 4.17188 3.19531 4.46875 3.13281 4.78125ZM8.78125 1.71094C8.88281 1.71094 9.09961 1.78711 9.43164 1.93945L9.70117 1.99805H10.1406L10.75 1.97461L10.791 2.0332V2.07422C10.791 2.09766 10.7148 2.13672 10.5625 2.19141C10.5625 2.22266 10.4863 2.25977 10.334 2.30273L10.0234 2.80664L10.0469 2.88281L10.0059 2.99414V3.05273L9.94727 3.75L9.91211 3.78516V3.9375L9.96484 4.65234L10.0645 4.72852V4.76953C10.0645 4.79297 10.0312 4.80469 9.96484 4.80469C9.87891 5.01172 9.83594 5.30664 9.83594 5.68945L9.85352 6.05273L9.77734 6.91992C9.87891 7.35742 9.96094 7.57617 10.0234 7.57617L10.123 7.69336V7.72852L10.082 7.76953H9.91211L9.67773 7.82812H9.43164C9.39258 7.78125 9.27734 7.74805 9.08594 7.72852L8.99219 7.71094L8.96875 7.69336V7.66992C9.1875 7.44727 9.29688 7.20508 9.29688 6.94336L9.35547 6.72656L9.33789 6.4043L9.35547 6.28711L9.33789 6.13477L9.39062 5.6543L9.31445 5.28516L9.25586 5.20898L9.23828 5.19141H9.2207L9.29688 5.07422V4.93945L9.25586 4.9043H9.08594C8.28516 5.00977 7.85742 5.13086 7.80273 5.26758C7.60742 5.33008 7.40234 5.45117 7.1875 5.63086C7.125 5.70117 7.09375 5.88086 7.09375 6.16992C7.09375 6.24805 7.14453 6.31836 7.24609 6.38086C7.375 6.58398 7.5293 6.73242 7.70898 6.82617C8.22852 7.0957 8.51562 7.23047 8.57031 7.23047H8.72266C8.99219 7.23047 9.12695 7.12695 9.12695 6.91992V6.90234C9.06445 6.8125 8.99414 6.76758 8.91602 6.76758H8.89258C8.82617 6.79883 8.77539 6.84961 8.74023 6.91992V6.94336L8.81641 7.03711H8.85742C8.88477 7.0293 8.91016 6.99805 8.93359 6.94336L8.875 6.91992V6.88477H8.89258L8.96875 6.96094C8.96875 7.03125 8.92578 7.0957 8.83984 7.1543C8.70312 7.1543 8.625 7.06445 8.60547 6.88477C8.60547 6.74414 8.7207 6.67383 8.95117 6.67383C9.08008 6.67383 9.17578 6.76953 9.23828 6.96094C9.23828 7.12109 9.18164 7.23047 9.06836 7.28906C8.8418 7.50391 8.63086 7.61133 8.43555 7.61133C7.94336 7.41992 7.66797 7.32422 7.60938 7.32422C7.30469 7.23047 7.07617 7.04492 6.92383 6.76758C6.83398 6.76758 6.71875 6.61328 6.57812 6.30469L6.51953 5.92383C6.51953 5.56836 6.60938 5.36133 6.78906 5.30273C6.83984 5.16211 6.91602 5.0918 7.01758 5.0918C7.12695 5.00195 7.33203 4.875 7.63281 4.71094C7.80469 4.64453 8.08398 4.5918 8.4707 4.55273C9.02148 4.50195 9.29688 4.45117 9.29688 4.40039H9.33789V4.38281C9.33789 4.09766 9.32422 3.91211 9.29688 3.82617L9.31445 3.75L9.29688 3.66797C9.33594 3.66797 9.35547 3.59766 9.35547 3.45703V3.39844C9.33203 2.97656 9.30664 2.76562 9.2793 2.76562L9.29688 2.70703C9.29688 2.61719 9.24023 2.49023 9.12695 2.32617C8.9707 1.97852 8.82227 1.80469 8.68164 1.80469L8.62891 1.72852L8.64648 1.71094H8.78125ZM9.54883 1.80469H9.60156V1.8457H9.54883V1.80469ZM11.5352 1.98047C11.793 2.03516 12.1191 2.15039 12.5137 2.32617C12.6973 2.48242 12.7891 2.62891 12.7891 2.76562C12.8594 3.07031 12.8945 3.29297 12.8945 3.43359C12.8945 3.58984 12.8164 3.73047 12.6602 3.85547C12.6602 3.98438 12.3281 4.09961 11.6641 4.20117H11.5352C11.2461 4.08398 11.043 3.95703 10.9258 3.82031L10.5215 3.41602L10.5684 3.375C10.7051 3.47266 10.9004 3.6543 11.1543 3.91992C11.2324 3.91992 11.3594 3.98633 11.5352 4.11914L11.5586 4.10156H11.752C12.0215 4.07031 12.2461 3.99609 12.4258 3.87891C12.5078 3.84766 12.6074 3.6582 12.7246 3.31055C12.6504 2.77539 12.5449 2.50781 12.4082 2.50781C12.1465 2.33203 11.8633 2.24414 11.5586 2.24414C11.2188 2.24414 10.9727 2.49219 10.8203 2.98828V3.07031C11.2461 3.63672 11.5488 3.91992 11.7285 3.91992H11.793C12.1172 3.91992 12.3223 3.69727 12.4082 3.25195V3.05273C12.2598 2.74023 12.0469 2.58398 11.7695 2.58398L11.3652 2.52539L11.1367 2.88867V2.98828C11.4141 3.375 11.5898 3.58398 11.6641 3.61523C11.9766 3.61523 12.1328 3.52734 12.1328 3.35156C12.1641 3.35156 12.1836 3.29102 12.1914 3.16992C11.9766 2.91602 11.8145 2.78906 11.7051 2.78906C11.5371 2.83203 11.4531 2.87891 11.4531 2.92969C11.4531 3.06641 11.5234 3.2207 11.6641 3.39258C11.793 3.39258 11.8848 3.33203 11.9395 3.21094C11.8887 3.10156 11.8184 3.02734 11.7285 2.98828H11.6641L11.5996 3.12891L11.7051 3.29297C11.791 3.27344 11.834 3.22656 11.834 3.15234L11.793 3.09375L11.8105 3.07031H11.834L11.875 3.15234C11.875 3.27344 11.8184 3.33398 11.7051 3.33398C11.6152 3.33398 11.5527 3.25391 11.5176 3.09375V2.9707C11.5176 2.93555 11.5957 2.89453 11.752 2.84766C11.9629 3.05859 12.0684 3.21289 12.0684 3.31055L11.6875 3.5332H11.6641C11.5898 3.5332 11.4707 3.3125 11.3066 2.87109V2.84766L11.6641 2.60742H11.7051C12.084 2.8457 12.2812 3.00781 12.2969 3.09375L12.3203 3.15234C12.3203 3.44922 12.2637 3.59766 12.1504 3.59766C12.1504 3.62891 12.0938 3.66211 11.9805 3.69727L11.793 3.82031H11.7285C11.4941 3.65625 11.3457 3.51367 11.2832 3.39258C11.1035 3.20508 10.9844 3.11133 10.9258 3.11133C11.0391 2.6543 11.166 2.42578 11.3066 2.42578L11.9805 2.36719C12.1914 2.52734 12.2969 2.64062 12.2969 2.70703C12.4766 2.87891 12.5762 3.04102 12.5957 3.19336V3.23438C12.3691 3.75781 12.1426 4.01953 11.916 4.01953L11.8574 4.03711H11.623C11.541 4.03711 11.3223 3.86914 10.9668 3.5332C10.7676 3.32617 10.668 3.18555 10.668 3.11133V3.01172C10.918 2.45703 11.1445 2.1543 11.3477 2.10352C11.3477 2.07617 11.4102 2.03516 11.5352 1.98047ZM12.8711 4.18359L12.9121 4.24219V4.3418C12.6465 4.60742 12.5137 4.75586 12.5137 4.78711C12.3574 5.09961 12.2793 5.43555 12.2793 5.79492L12.2383 6.01758L12.3848 6.84375C12.4082 7.07812 12.4648 7.28125 12.5547 7.45312C12.6523 7.64062 12.8496 7.78125 13.1465 7.875C13.2168 7.875 13.252 7.88867 13.252 7.91602L13.2285 7.93359H13.1699L12.3848 7.75195L12.2793 7.77539H12.1328C11.5508 7.84961 11.2051 7.92969 11.0957 8.01562C11.0449 8.01562 10.9883 8.05664 10.9258 8.13867V8.17383C10.9258 8.20508 10.9609 8.22656 11.0312 8.23828C11.0859 8.22266 11.1133 8.19531 11.1133 8.15625H11.1543V8.17383C11.127 8.25586 11.0703 8.29688 10.9844 8.29688H10.9434C10.8652 8.29688 10.8027 8.25586 10.7559 8.17383V8.11523C10.7559 8.02539 10.8398 7.93164 11.0078 7.83398C11.3906 7.53711 11.582 7.29492 11.582 7.10742C11.6367 7.00195 11.6641 6.9082 11.6641 6.82617H11.6875L11.6641 6.72656L11.6875 5.75391C11.6875 5.64062 11.6309 5.45898 11.5176 5.20898C11.4043 4.83398 11.2344 4.64648 11.0078 4.64648L10.9434 4.58203V4.56445L11.0078 4.50586H11.0957L11.2832 4.52344C11.8652 4.47266 12.3027 4.39258 12.5957 4.2832C12.6855 4.2168 12.7773 4.18359 12.8711 4.18359ZM14.6113 2.2207C14.7598 2.26367 14.834 2.30664 14.834 2.34961V2.38477L14.3535 2.8125C14.3301 2.84375 14.3066 2.92578 14.2832 3.05859C14.1855 3.12109 14.1367 3.22656 14.1367 3.375L14.1895 3.83789H14.5176C14.7246 3.83789 14.9883 3.68945 15.3086 3.39258L15.3438 3.42773C15.3203 3.56445 15.2051 3.75781 14.998 4.00781C14.9121 4.17969 14.832 4.30273 14.7578 4.37695H14.7402L14.7051 4.3418L14.7227 4.24805L14.7051 4.23047H14.6113C14.4238 4.23047 14.2598 4.26172 14.1191 4.32422L14.1543 4.43555V4.6582C14.127 5.36523 14.0957 5.71875 14.0605 5.71875V6.4043L14.1543 6.73828V6.96094C14.1543 7.03516 14.1777 7.10938 14.2246 7.18359V7.24219L14.207 7.33594C14.2422 7.33594 14.3047 7.46484 14.3945 7.72266L15.1445 8.54297L15.6543 8.93555C15.6895 8.93555 15.7266 8.95312 15.7656 8.98828L15.8184 8.9707L15.9121 8.98828H16.0234C16.5352 8.94922 16.791 8.82617 16.791 8.61914L16.8086 8.52539V8.30273C16.8086 8.06055 16.6504 7.92383 16.334 7.89258H16.1699C16.0059 7.89258 15.9141 8.07227 15.8945 8.43164V8.44922C16.0859 8.67578 16.2383 8.79492 16.3516 8.80664C16.5117 8.77539 16.5918 8.69336 16.5918 8.56055V8.52539C16.5371 8.27539 16.4395 8.15039 16.2988 8.15039C16.1816 8.20117 16.1074 8.25781 16.0762 8.32031V8.37891C16.0762 8.44141 16.125 8.50781 16.2227 8.57812C16.332 8.55469 16.3867 8.51172 16.3867 8.44922C16.3555 8.37109 16.3262 8.32812 16.2988 8.32031H16.2402L16.1523 8.39648H16.1348V8.35547C16.209 8.25781 16.2812 8.20898 16.3516 8.20898C16.4609 8.3418 16.5156 8.44141 16.5156 8.50781V8.52539C16.4531 8.63477 16.4102 8.68945 16.3867 8.68945H16.3516C16.2891 8.68945 16.1602 8.60938 15.9648 8.44922C15.9961 8.20312 16.0703 8.08008 16.1875 8.08008L16.334 8.0625H16.4277C16.5371 8.0625 16.6348 8.25391 16.7207 8.63672C16.5684 8.83594 16.4453 8.93555 16.3516 8.93555C15.9727 8.72461 15.7832 8.5625 15.7832 8.44922V8.30273C15.8184 8.00586 15.8555 7.84961 15.8945 7.83398H16.3516C16.6953 7.83398 16.8672 7.91602 16.8672 8.08008L16.9961 8.60156L17.0137 8.7832C16.5762 9.11914 16.2207 9.32422 15.9473 9.39844C15.8809 9.44531 15.7891 9.46875 15.6719 9.46875H15.6543C15.5254 9.34766 15.2637 9.16992 14.8691 8.93555C14.709 8.83398 14.416 8.54297 13.9902 8.0625C13.8691 8.00391 13.7832 7.9043 13.7324 7.76367V7.42969C13.7324 7.25 13.707 6.98828 13.6562 6.64453L13.75 5.67773L13.7148 5.37891V5.19727L13.75 5.13867V5.00977C13.75 4.86523 13.7324 4.73438 13.6973 4.61719C13.7402 4.61719 13.7754 4.52539 13.8027 4.3418H13.7852C13.7617 4.3418 13.75 4.31641 13.75 4.26562C13.5273 4.26562 13.2656 4.3457 12.9648 4.50586C12.8789 4.61914 12.8359 4.70117 12.8359 4.75195V4.78711C12.8555 4.83789 12.8984 4.86328 12.9648 4.86328C13.0352 4.84375 13.0703 4.79883 13.0703 4.72852H13.1113V4.76953C13.1113 4.86328 13.0508 4.91797 12.9297 4.93359H12.9121C12.7988 4.91797 12.7422 4.86328 12.7422 4.76953V4.71094C12.7422 4.67969 12.8945 4.40625 13.1992 3.89062C13.2734 3.98047 13.3223 4.02539 13.3457 4.02539L13.7676 3.91406L13.8027 3.76172C13.7754 3.76172 13.7578 3.68164 13.75 3.52148C13.7227 3.50977 13.6621 3.33008 13.5684 2.98242L13.4395 2.87109H13.4043L13.3809 2.88867H13.3633L13.1992 2.72461V2.70117C13.332 2.61523 13.5039 2.57227 13.7148 2.57227C14.0703 2.46289 14.3691 2.3457 14.6113 2.2207ZM12.9824 4.63477L13.0703 4.6582V4.69336H13.0527L13.0352 4.67578H13.0176C12.9824 4.67578 12.9648 4.69336 12.9648 4.72852L12.9473 4.75195H12.9121V4.72852C12.9355 4.67383 12.959 4.64258 12.9824 4.63477ZM18.0801 1.85156C18.6387 2.19922 19.1406 2.37305 19.5859 2.37305L19.9785 2.31445L19.9961 2.33789V2.37305C19.6758 2.57617 19.5078 2.73633 19.4922 2.85352C19.3203 3.01367 19.2344 3.18555 19.2344 3.36914C19.1328 3.50977 19.0215 3.7168 18.9004 3.99023C18.8613 4.00195 18.8105 4.11523 18.748 4.33008C18.7168 4.33008 18.6543 4.41406 18.5605 4.58203C18.2949 4.91797 18.1523 5.125 18.1328 5.20312C18.0742 5.20312 18.0371 5.28711 18.0215 5.45508C17.9902 5.45508 17.9727 5.51367 17.9688 5.63086C17.8789 5.68164 17.8047 5.83008 17.7461 6.07617L17.6875 6.31055C17.5508 6.48633 17.4766 6.61719 17.4648 6.70312L17.3711 6.77344L17.3887 6.79102V6.82617C17.3066 6.89258 17.1699 7.07617 16.9785 7.37695C16.9355 7.37695 16.8125 7.59766 16.6094 8.03906C16.4961 8.23438 16.291 8.44336 15.9941 8.66602L15.8066 8.8418H15.7891L15.7715 8.82422L15.2324 9.03516C15.1777 9.09375 15.1035 9.12305 15.0098 9.12305C14.916 9.20508 14.625 9.28906 14.1367 9.375C14.1367 9.41016 14.0176 9.42773 13.7793 9.42773H13.5918C13.2441 9.36523 13.0703 9.29883 13.0703 9.22852C12.8672 9.04883 12.6934 8.80078 12.5488 8.48438C12.6387 8.28906 12.8574 8.06445 13.2051 7.81055H13.2754C13.5527 7.81055 13.8145 7.875 14.0605 8.00391C14.1113 8.09375 14.1426 8.18945 14.1543 8.29102C14.1543 8.58789 14.1172 8.73633 14.043 8.73633L13.6855 9C13.4551 8.94141 13.2578 8.86523 13.0938 8.77148V8.71875C13.0938 8.3125 13.1484 8.10938 13.2578 8.10938L13.5742 8.0918H13.6855C13.7949 8.20117 13.8574 8.32031 13.873 8.44922V8.4668L13.5039 8.80664L13.2578 8.55469C13.3008 8.36719 13.3691 8.27344 13.4629 8.27344H13.6152C13.6348 8.27344 13.6582 8.32617 13.6855 8.43164L13.5918 8.50195C13.5918 8.39648 13.543 8.34375 13.4453 8.34375C13.3828 8.42188 13.3516 8.48047 13.3516 8.51953V8.53711C13.3945 8.5957 13.457 8.63867 13.5391 8.66602C13.6992 8.56445 13.7793 8.46289 13.7793 8.36133L13.5215 8.16211C13.3105 8.20117 13.2051 8.2793 13.2051 8.39648L13.1641 8.60742C13.1641 8.72461 13.3379 8.81445 13.6855 8.87695C13.9355 8.7207 14.0605 8.58398 14.0605 8.4668C13.9199 8.13477 13.7344 7.96875 13.5039 7.96875H13.1875C12.9766 8.1875 12.8711 8.39453 12.8711 8.58984C12.9375 8.88672 13.0234 9.03516 13.1289 9.03516C13.1523 9.06641 13.252 9.11328 13.4277 9.17578C13.666 9.17578 13.8945 9.14648 14.1133 9.08789C14.1641 9.08789 14.1895 9.07617 14.1895 9.05273L14.3184 9.07031H14.3418C14.4277 9.01562 14.6562 8.92773 15.0273 8.80664C15.2227 8.71289 15.3828 8.57031 15.5078 8.37891C15.707 8.33203 15.8691 8.20703 15.9941 8.00391C16.3027 7.72266 16.5078 7.4668 16.6094 7.23633L16.8672 6.80859C16.9102 6.80859 16.9844 6.67773 17.0898 6.41602C17.2148 6.33398 17.2773 6.19141 17.2773 5.98828L17.166 5.68359C17.1152 5.68359 17.0586 5.55469 16.9961 5.29688C16.9492 5.13281 16.8574 4.99023 16.7207 4.86914C16.6074 4.72852 16.5508 4.60938 16.5508 4.51172L16.4043 4.29492C16.1543 4.09961 16.0293 3.92188 16.0293 3.76172L15.9766 3.69141L15.9941 3.52734C15.9551 3.50781 15.9043 3.41992 15.8418 3.26367C15.6934 3.13086 15.4961 3.01758 15.25 2.92383L15.2324 2.90625V2.88867L15.2676 2.85352H15.3613L16.1055 2.95898H16.3281C16.4336 2.95898 16.6875 2.875 17.0898 2.70703H17.1309L17.1836 2.76562C17.1836 2.78906 17.1465 2.80664 17.0723 2.81836C16.9121 2.91211 16.832 3.07812 16.832 3.31641C16.8008 3.31641 16.7812 3.33984 16.7734 3.38672C16.7734 3.50391 16.8301 3.71875 16.9434 4.03125L17.0371 4.22461V4.38281C17.0371 4.5 17.1055 4.66211 17.2422 4.86914C17.2422 5.05664 17.3418 5.2168 17.541 5.34961H17.5762C17.6309 5.34961 17.6934 5.18164 17.7637 4.8457C17.7637 4.73633 17.8242 4.61914 17.9453 4.49414C18.0078 4.31055 18.0898 4.125 18.1914 3.9375L18.2266 3.72656V3.47461C18.293 3.43555 18.3496 3.29883 18.3965 3.06445L18.4316 3.0293V2.72461L18.4141 2.37305C18.207 2.22852 18.0508 2.15625 17.9453 2.15625V1.99805C17.9883 1.92773 18.0332 1.87891 18.0801 1.85156ZM13.4453 8.41406C13.4492 8.49609 13.4863 8.53711 13.5566 8.53711L13.5215 8.57227C13.4707 8.55664 13.4336 8.52734 13.4102 8.48438V8.44922L13.4453 8.41406ZM20.8574 3.13477C21.1309 3.13477 21.4492 3.24414 21.8125 3.46289L22.3105 4.08984C22.3105 4.12109 22.3691 4.22266 22.4863 4.39453C22.4863 4.51953 22.5664 4.75977 22.7266 5.11523C22.7461 5.2168 22.7852 5.29297 22.8438 5.34375L22.8262 5.53125V5.74219L22.8672 6.06445L22.8262 6.35156L22.8438 6.50391L22.8262 7.13086C22.9004 7.44727 22.9727 7.60547 23.043 7.60547L23.2832 7.81641V7.91016L23.1426 8.04492C22.9395 8.01367 22.8281 7.98828 22.8086 7.96875H22.3691L22.0293 8.08008C21.8691 8.00195 21.7832 7.94531 21.7715 7.91016V7.89258C21.8105 7.83789 21.9043 7.77344 22.0527 7.69922C22.1387 7.65625 22.2168 7.50391 22.2871 7.24219L22.3281 7.11328L22.252 7.05469C22.0879 7.26562 21.875 7.42969 21.6133 7.54688C21.0938 7.75 20.7422 7.85156 20.5586 7.85156C20.5039 7.85156 20.3652 7.79492 20.1426 7.68164C20.0137 7.56445 19.9219 7.46289 19.8672 7.37695L19.8848 7.35938V7.3418L19.7852 7.11328C19.8398 6.86719 19.998 6.60742 20.2598 6.33398C20.2598 6.25977 20.5312 6.00586 21.0742 5.57227L21.7715 5.11523C21.8223 5.11523 21.8887 5.06445 21.9707 4.96289H21.9941V4.94531L21.8125 4.20117C21.625 3.91211 21.4668 3.73438 21.3379 3.66797C21.166 3.57812 21.0586 3.5332 21.0156 3.5332H20.9805C20.9141 3.5332 20.8145 3.61719 20.6816 3.78516C20.6387 3.79688 20.6172 3.83398 20.6172 3.89648C20.6484 3.89648 20.6699 3.96094 20.6816 4.08984C20.8184 4.29297 20.9902 4.39453 21.1973 4.39453L21.2734 4.52344V4.64062L21.2148 4.69922H21.1973C20.7676 4.69922 20.4551 4.52148 20.2598 4.16602C20.2246 4.11133 20.2051 4.00977 20.2012 3.86133V3.70898C20.252 3.54883 20.3379 3.41602 20.459 3.31055C20.6387 3.19336 20.7715 3.13477 20.8574 3.13477ZM21.9707 5.40234H21.8535C21.6934 5.44922 21.5879 5.51758 21.5371 5.60742C21.502 5.60742 21.4023 5.69727 21.2383 5.87695C20.9336 6.07227 20.7266 6.34375 20.6172 6.69141C20.5781 6.69141 20.5527 6.82617 20.541 7.0957C20.6816 7.2207 20.7676 7.2832 20.7988 7.2832L20.8574 7.30078L20.8809 7.2832V7.26562L20.998 7.2832L21.4727 7.0957C21.5195 7.0957 21.6719 6.99414 21.9297 6.79102L21.9941 6.71484L22.1113 6.58008H22.1289L22.1523 6.59766H22.1699C22.1699 6.52734 22.1973 6.47656 22.252 6.44531L22.2871 6.12305L22.2695 5.98828L22.2871 5.85938C22.2871 5.61719 22.2422 5.41406 22.1523 5.25C22.0312 5.26562 21.9707 5.31641 21.9707 5.40234Z" fill="white"/>
</svg>
